<?xml version="1.0" encoding="utf-8"?>
<!-- Generator: Adobe Illustrator 21.1.0, SVG Export Plug-In . SVG Version: 6.00 Build 0)  -->
<svg version="1.1" id="Layer_1" xmlns="http://www.w3.org/2000/svg" xmlns:xlink="http://www.w3.org/1999/xlink" x="0px" y="0px"
	 viewBox="0 0 512 512" style="enable-background:new 0 0 512 512;" xml:space="preserve">
<g>
	<g>
		<circle cx="42.7" cy="112" r="10.7"/>
	</g>
</g>
<g>
	<g>
		<path d="M0,112l0,32c0,5.9,4.8,10.7,10.7,10.7h74.7v10.7c0,5.9,4.8,10.7,10.7,10.7h21.3c0,5.9,4.8,10.7,10.7,10.7h27.6l18.2,18.2
			c2,2,4.7,3.1,7.6,3.1H192v32c0,2.8,1.1,5.5,3.1,7.5l21.3,21.3c2,2,4.7,3.1,7.5,3.1h53.3v96c0,5.9,4.8,10.7,10.7,10.7h10.7v96
			c0,5.9,4.8,10.7,10.7,10.7h64c5.9,0,10.7-4.8,10.7-10.7v-96h10.7c5.9,0,10.7-4.8,10.7-10.7V203.9l77.2-38.6h18.8
			c5.9,0,10.7-4.8,10.7-10.7V69.3V58.7c0-2.8-1.1-5.5-3.1-7.5l-21.3-21.3c-2-2-4.7-3.1-7.5-3.1h-42.7c-5.9,0-10.7,4.8-10.7,10.7
			v21.3h-224V37.3c0-5.9-4.8-10.7-10.7-10.7c-5.9,0-10.7,4.8-10.7,10.7v21.3h-1.4c-3.3-11.9-12.5-21.2-26.7-26.8
			c-12.2-4.8-24.4-5.2-24.9-5.2c-2.9-0.1-5.7,1-7.8,3s-3.2,4.8-3.2,7.7v32V80H96c-5.9,0-10.7,4.8-10.7,10.7v10.7H10.7
			C4.8,101.3,0,106.1,0,112z M486.2,58.7H448V48h27.6L486.2,58.7z M320,464v-85.3h42.7V464H352v-53.3c0-5.9-4.8-10.7-10.7-10.7
			c-5.9,0-10.7,4.8-10.7,10.7V464H320z M330.7,357.3V336H352v21.3H330.7z M309.3,357.3h-10.7v-64c5.9,0,10.7-4.8,10.7-10.7
			c0-5.9-4.8-10.7-10.7-10.7v-21.3c5.9,0,10.7-4.8,10.7-10.7s-4.8-10.7-10.7-10.7V208H384v21.3c-5.9,0-10.7,4.8-10.7,10.7
			s4.8,10.7,10.7,10.7V272c-5.9,0-10.7,4.8-10.7,10.7c0,5.9,4.8,10.7,10.7,10.7v64h-10.7v-32c0-5.9-4.8-10.7-10.7-10.7H320
			c-5.9,0-10.7,4.8-10.7,10.7V357.3L309.3,357.3z M213.3,235.6L213.3,235.6l0-27.6h48.9l-13.8,13.8c-4.2,4.2-4.2,10.9,0,15.1
			c2.1,2.1,4.8,3.1,7.5,3.1s5.5-1,7.5-3.1l13.8-13.8v27.6h-48.9L213.3,235.6z M138.7,80h32h266.7h53.3v64H480
			c-1.7,0-3.3,0.4-4.8,1.1l-83.1,41.5H288H185.7l-18.2-18.2c-2-2-4.7-3.1-7.5-3.1h-21.3V90.7V80z M138.7,49.7
			c2.3,0.6,4.8,1.3,7.2,2.3c5,2,8.2,4.3,10.3,6.7h-17.5V49.7z M106.7,101.3h10.7v53.3h-10.7V144v-32V101.3z M21.3,122.7h64v10.7h-64
			V122.7z"/>
	</g>
</g>
<g>
	<g>
		<path d="M309.3,101.3h-192c-5.9,0-10.7,4.8-10.7,10.7s4.8,10.7,10.7,10.7h192c5.9,0,10.7-4.8,10.7-10.7
			C320,106.1,315.2,101.3,309.3,101.3z"/>
	</g>
</g>
<g>
	<g>
		<path d="M309.3,144h-192c-5.9,0-10.7,4.8-10.7,10.7s4.8,10.7,10.7,10.7h192c5.9,0,10.7-4.8,10.7-10.7S315.2,144,309.3,144z"/>
	</g>
</g>
</svg>
