<?xml version="1.0" encoding="iso-8859-1"?>
<!-- Generator: Adobe Illustrator 19.0.0, SVG Export Plug-In . SVG Version: 6.00 Build 0)  -->
<svg version="1.1" id="Layer_1" xmlns="http://www.w3.org/2000/svg" xmlns:xlink="http://www.w3.org/1999/xlink" x="0px" y="0px"
	 viewBox="0 0 511.986 511.986" style="enable-background:new 0 0 511.986 511.986;" xml:space="preserve">
<g>
	<g>
		<circle cx="42.663" cy="111.992" r="10.664"/>
	</g>
</g>
<g>
	<g>
		<path d="M501.332,101.328h-74.686V90.657c0-5.891-4.766-10.664-10.656-10.664h-21.343V69.329V37.33
			c0-2.891-1.156-5.656-3.234-7.664c-2.078-2.008-4.859-3.086-7.766-3c-0.5,0.016-12.625,0.445-24.875,5.227
			c-14.155,5.531-23.343,14.836-26.687,26.765h-1.438V37.33c0-5.891-4.766-10.672-10.655-10.672
			c-5.891,0-10.656,4.781-10.656,10.672v21.327H85.334V37.33c0-5.891-4.781-10.672-10.672-10.672H31.999
			c-2.828,0-5.539,1.125-7.539,3.125L3.125,51.119C1.125,53.118,0,55.829,0,58.657v10.672v85.326
			c0,5.891,4.773,10.672,10.664,10.672h18.82l77.178,38.593v164.066c0,5.891,4.781,10.656,10.671,10.656h10.664v95.998
			c0,5.906,4.773,10.688,10.664,10.688h63.999c5.891,0,10.672-4.781,10.672-10.688v-95.998h10.662
			c5.891,0,10.664-4.766,10.664-10.656v-95.998h53.334c2.828,0,5.531-1.125,7.531-3.125l21.344-21.335c2-2,3.125-4.711,3.125-7.539
			V207.99h10.655c2.844,0,5.562-1.125,7.562-3.125l18.202-18.211h27.578c5.891,0,10.656-4.773,10.656-10.663h21.343
			c5.891,0,10.656-4.773,10.656-10.664v-10.672h74.686c5.875,0,10.656-4.773,10.656-10.664v-31.999
			C511.988,106.101,507.207,101.328,501.332,101.328z M36.421,47.994h27.578v10.663h-38.25L36.421,47.994z M181.331,463.984V410.64
			c0-5.873-4.781-10.654-10.671-10.654s-10.664,4.781-10.664,10.654v53.344h-10.664v-85.342h42.663v85.342H181.331z M159.996,357.33
			v-21.344h21.335v21.344H159.996z M202.659,357.33v-32c0-5.904-4.773-10.686-10.664-10.686h-42.663
			c-5.891,0-10.672,4.781-10.672,10.686v32h-10.664v-63.998c5.891,0,10.664-4.781,10.664-10.688c0-5.875-4.773-10.656-10.664-10.656
			v-21.335c5.891,0,10.664-4.773,10.664-10.664c0-5.891-4.773-10.664-10.664-10.664V207.99h85.334v21.335
			c-5.891,0-10.672,4.773-10.672,10.664c0,5.891,4.781,10.664,10.672,10.664v21.335c-5.891,0-10.672,4.781-10.672,10.656
			c0,5.906,4.781,10.688,10.672,10.688v63.998H202.659z M283.571,250.653h-48.913v-27.578l13.796,13.789
			c2.078,2.086,4.812,3.125,7.539,3.125c2.727,0,5.46-1.039,7.538-3.125c4.172-4.164,4.172-10.922,0-15.086l-13.788-13.788h48.905
			v27.577h0.001L283.571,250.653z M373.335,90.657v74.67h-21.344c-2.828,0-5.531,1.125-7.53,3.125l-18.219,18.202H223.994H119.848
			l-83.076-41.538c-1.484-0.742-3.117-1.125-4.773-1.125H21.335V79.993h53.327h266.674h31.999V90.657z M373.335,58.657h-17.531
			c2.109-2.398,5.359-4.734,10.328-6.733c2.422-0.977,4.891-1.711,7.203-2.266V58.657z M405.335,111.992v31.999v10.664h-10.688
			v-53.327h10.688V111.992z M490.645,133.328h-63.999v-10.672h63.999V133.328z"/>
	</g>
</g>
<g>
	<g>
		<path d="M309.337,101.328H117.333c-5.89,0-10.671,4.773-10.671,10.664c0,5.891,4.781,10.664,10.671,10.664h192.004
			c5.875,0,10.656-4.773,10.656-10.664C319.993,106.101,315.212,101.328,309.337,101.328z"/>
	</g>
</g>
<g>
	<g>
		<path d="M309.337,143.991H117.333c-5.89,0-10.671,4.773-10.671,10.664s4.781,10.672,10.671,10.672h192.004
			c5.875,0,10.656-4.781,10.656-10.672S315.212,143.991,309.337,143.991z"/>
	</g>
</g>
<g>
</g>
<g>
</g>
<g>
</g>
<g>
</g>
<g>
</g>
<g>
</g>
<g>
</g>
<g>
</g>
<g>
</g>
<g>
</g>
<g>
</g>
<g>
</g>
<g>
</g>
<g>
</g>
<g>
</g>
</svg>
