<?xml version="1.0" encoding="iso-8859-1"?>
<!-- Generator: Adobe Illustrator 17.1.0, SVG Export Plug-In . SVG Version: 6.00 Build 0)  -->
<!DOCTYPE svg PUBLIC "-//W3C//DTD SVG 1.1//EN" "http://www.w3.org/Graphics/SVG/1.1/DTD/svg11.dtd">
<svg version="1.1" id="Capa_1" xmlns="http://www.w3.org/2000/svg" xmlns:xlink="http://www.w3.org/1999/xlink" x="0px" y="0px"
	 viewBox="0 0 294.313 294.313" style="enable-background:new 0 0 294.313 294.313;" xml:space="preserve">
<g>
	<path d="M95.521,57.084c13.184,0,23.907-6.249,29.547-12.097c2.089-2.165,2.681-5.369,1.505-8.139
		c-1.177-2.77-3.895-4.567-6.903-4.567H71.372c-3.009,0-5.727,1.798-6.903,4.567c-1.176,2.77-0.584,5.974,1.506,8.14
		C71.616,50.836,82.339,57.084,95.521,57.084z"/>
	<path d="M195.938,78.348V18.281h9.333c4.143,0,7.5-3.357,7.5-7.5s-3.357-7.5-7.5-7.5h-49c-4.143,0-7.5,3.357-7.5,7.5
		s3.357,7.5,7.5,7.5h24.667v19.758c-47,6.2-83.697,25.987-109.3,58.884c-27.674,35.557-36.632,80.038-39.344,111.093
		c-0.085,0.972-0.121,1.936-0.196,2.893C13.774,214.781,0,231.073,0,250.531c0,22.332,18.178,40.5,40.51,40.5
		s40.505-18.168,40.505-40.5c0-20.032-14.62-36.704-33.75-39.927c2.658-32.091,11.322-72.495,36.207-104.468
		c22.736-29.211,55.465-47.002,97.465-52.958v25.074c-55,3.494-99.584,49.823-99.584,106.28c0,58.725,47.859,106.5,106.583,106.5
		s106.375-47.775,106.375-106.5C294.313,128.583,250.938,82.573,195.938,78.348z M66.021,250.531c0,14.061-11.439,25.5-25.5,25.5
		s-25.5-11.439-25.5-25.5c0-10.818,6.775-20.079,16.303-23.777c-0.61,23.593,1.903,28.757,2.023,29.593
		c0.538,3.738,3.745,6.434,7.414,6.434c0.355,0,0.716-0.025,1.077-0.077c4.1-0.59,6.945-4.392,6.356-8.491
		c-0.056-0.389-2.496-5.401-1.784-28.488C57.639,228.391,66.021,238.498,66.021,250.531z M188.021,276.031
		c-50.453,0-91.667-41.047-91.667-91.5c0-48.183,37.584-87.784,84.584-91.25v116c0,4.143,3.357,7.5,7.5,7.5s7.5-3.357,7.5-7.5
		V93.407c47,4.185,83.416,43.452,83.416,91.124C279.354,234.984,238.474,276.031,188.021,276.031z"/>
</g>
<g>
</g>
<g>
</g>
<g>
</g>
<g>
</g>
<g>
</g>
<g>
</g>
<g>
</g>
<g>
</g>
<g>
</g>
<g>
</g>
<g>
</g>
<g>
</g>
<g>
</g>
<g>
</g>
<g>
</g>
</svg>
