<?xml version="1.0" encoding="utf-8"?>
<!-- Generator: Adobe Illustrator 21.1.0, SVG Export Plug-In . SVG Version: 6.00 Build 0)  -->
<svg version="1.1" id="Layer_1" xmlns="http://www.w3.org/2000/svg" xmlns:xlink="http://www.w3.org/1999/xlink" x="0px" y="0px"
	 viewBox="0 0 512 512" style="enable-background:new 0 0 512 512;" xml:space="preserve">
<style type="text/css">
	.st0{fill:#FFFFFF;}
</style>
<g>
	<g>
		<circle class="st0" cx="42.7" cy="112" r="10.7"/>
	</g>
</g>
<g>
	<g>
		<path class="st0" d="M501.3,101.3h-74.7V90.7c0-5.9-4.8-10.7-10.7-10.7h-21.3V69.3v-32c0-2.9-1.2-5.7-3.2-7.7s-4.9-3.1-7.8-3
			c-0.5,0-12.6,0.4-24.9,5.2c-14.2,5.5-23.3,14.8-26.7,26.8h-1.4V37.3c0-5.9-4.8-10.7-10.7-10.7c-5.9,0-10.7,4.8-10.7,10.7v21.3
			h-224V37.3c0-5.9-4.8-10.7-10.7-10.7H32c-2.8,0-5.5,1.1-7.5,3.1L3.1,51.1c-2,2-3.1,4.7-3.1,7.5v10.7v85.3
			c0,5.9,4.8,10.7,10.7,10.7h18.8l77.2,38.6V368c0,5.9,4.8,10.7,10.7,10.7H128v96c0,5.9,4.8,10.7,10.7,10.7h64
			c5.9,0,10.7-4.8,10.7-10.7v-96H224c5.9,0,10.7-4.8,10.7-10.7v-96H288c2.8,0,5.5-1.1,7.5-3.1l21.3-21.3c2-2,3.1-4.7,3.1-7.5v-32
			h10.7c2.8,0,5.6-1.1,7.6-3.1l18.2-18.2H384c5.9,0,10.7-4.8,10.7-10.7H416c5.9,0,10.7-4.8,10.7-10.7v-10.7h74.7
			c5.9,0,10.7-4.8,10.7-10.7v-32C512,106.1,507.2,101.3,501.3,101.3z M36.4,48H64v10.7H25.7L36.4,48z M181.3,464v-53.3
			c0-5.9-4.8-10.7-10.7-10.7s-10.7,4.8-10.7,10.7V464h-10.7v-85.3H192V464H181.3z M160,357.3V336h21.3v21.3H160z M202.7,357.3v-32
			c0-5.9-4.8-10.7-10.7-10.7h-42.7c-5.9,0-10.7,4.8-10.7,10.7v32H128v-64c5.9,0,10.7-4.8,10.7-10.7c0-5.9-4.8-10.7-10.7-10.7v-21.3
			c5.9,0,10.7-4.8,10.7-10.7s-4.8-10.7-10.7-10.7V208h85.3v21.3c-5.9,0-10.7,4.8-10.7,10.7s4.8,10.7,10.7,10.7V272
			c-5.9,0-10.7,4.8-10.7,10.7c0,5.9,4.8,10.7,10.7,10.7v64L202.7,357.3L202.7,357.3z M283.6,250.7h-48.9v-27.6l13.8,13.8
			c2.1,2.1,4.8,3.1,7.5,3.1s5.5-1,7.5-3.1c4.2-4.2,4.2-10.9,0-15.1L249.7,208h48.9v27.6h0L283.6,250.7z M373.3,90.7v74.7H352
			c-2.8,0-5.5,1.1-7.5,3.1l-18.2,18.2H224H119.8l-83.1-41.5c-1.5-0.7-3.1-1.1-4.8-1.1H21.3V80h53.3h266.7h32V90.7z M373.3,58.7
			h-17.5c2.1-2.4,5.4-4.7,10.3-6.7c2.4-1,4.9-1.7,7.2-2.3V58.7z M405.3,112v32v10.7h-10.7v-53.3h10.7V112z M490.6,133.3h-64v-10.7
			h64V133.3z"/>
	</g>
</g>
<g>
	<g>
		<path class="st0" d="M309.3,101.3h-192c-5.9,0-10.7,4.8-10.7,10.7s4.8,10.7,10.7,10.7h192c5.9,0,10.7-4.8,10.7-10.7
			C320,106.1,315.2,101.3,309.3,101.3z"/>
	</g>
</g>
<g>
	<g>
		<path class="st0" d="M309.3,144h-192c-5.9,0-10.7,4.8-10.7,10.7s4.8,10.7,10.7,10.7h192c5.9,0,10.7-4.8,10.7-10.7
			S315.2,144,309.3,144z"/>
	</g>
</g>
</svg>
